# xmcd
#
# Track frame offsets:
#	150
#	21792
#	33870
#	53758
#	73432
#	94789
#	115020
#	130921
#	145135
#
# Disc length: 2157 seconds
#
# Revision: 0
# Processed by: cddbd v1.5.1PL0 Copyright (c) Steve Scherf et al.
# Submitted via: dBpowerAMP V4.0
#
DISCID=79086b09
DTITLE=Bent and Twisted - With your shield or on it
DYEAR=1999
DGENRE=Blues
TTITLE0=Legend of the colt fourty-five.
TTITLE1=Lady music
TTITLE2=Jessica, (I love you).
TTITLE3=Just dandy just fine.
TTITLE4=Pretty sassy.
TTITLE5=Cool green eyes!
TTITLE6=Tender touch/Come on and dance with me!
TTITLE7=Tax man
TTITLE8=Hold you!
EXTD=With your shield or on it!
EXTT0=
EXTT1=
EXTT2=
EXTT3=
EXTT4=
EXTT5=
EXTT6=
EXTT7=
EXTT8=
PLAYORDER=
